<?xml version="1.0" encoding="utf-8"?>
<!-- Generator: Adobe Illustrator 27.6.1, SVG Export Plug-In . SVG Version: 6.00 Build 0)  -->
<svg version="1.1" xmlns="http://www.w3.org/2000/svg" xmlns:xlink="http://www.w3.org/1999/xlink" x="0px" y="0px"
	 viewBox="0 0 595.3 420.9" style="enable-background:new 0 0 595.3 420.9;" xml:space="preserve">
<style type="text/css">
	.st0{display:none;}
</style>
<g id="Capa_1" class="st0">
	
		<image style="display:inline;overflow:visible;" width="577" height="432" xlink:href="loho.png"  transform="matrix(0.75 0 0 0.75 81.1653 48.1102)">
	</image>
</g>
<g id="Capa_2" fill="#FFA500">
	<path d="M503.5,186.5c-8.4,5.4-16.8,10.9-25,16.4l-1.2,0.8l-5.9,38.3c-0.8-0.1-1.5-0.3-2.2-0.4c-1.4-0.2-2.7-0.5-4.3-0.7l3-21.3
		l-1.3-1.2c-3.3-2.8-6.5-5.7-9.8-8.5l-4.6-3.9l-1.3,9.7c-1.4-0.2-2.9-0.3-4.3-0.5l-1.4-0.2l3.4-27.5l-3.3-0.4
		c-2.9-0.4-5.8-0.7-8.6-1l2.7-23.5l-1.6-1.1c-5.2-3.6-10.5-7.2-15.8-10.8l-4.6-3l-9.9,98.7c-6.3-0.6-12.6-1.2-18.9-1.7l0.2-2.3
		c4.4-4.3,7.4-9.9,7.9-16.3c0.6-6.7-1.6-13.4-6.1-18.6c-4.5-5.3-11.1-8.6-18.2-9.4l1.1-17.5c0.4-6.4-1.4-11.9-5.5-16.3
		c-9.2-10-26.9-11.4-34.1-11.5c-2.7-0.1-5.2-1.5-6.4-3.7c-5.9-10.3-12.9-14.7-18.7-16.6c-0.9-1.4-2.4-2.3-4.1-2.3
		c-6.6-0.1-13.2-0.1-19.8,0c-1.7,0-3.2,0.9-4.1,2.3c-4.1,0-8.2,0.1-12.3,0.1c-2.7,0.1-4.9,2.3-4.8,5c0.1,2.7,2.2,4.8,4.9,4.8
		c0,0,0.1,0,0.1,0c6.3-0.1,12.7-0.2,19.1-0.2c3.5,0.8,6.7,2.1,9.9,4.4c4.8,3.4,8.3,8.2,10.2,13.8c-13.4-0.2-26.8-0.1-40.2,0.1
		c-6.9,0.1-10.9,7.1-7.2,12.3c2.7,2.2,5.3,4.5,7.9,6.7c-3.8-1-7.8-1.4-11.9-1.3c-11.5,0.3-22.3,5.2-29.8,13.4
		c-1.7,1.9-3.3,4-4.6,6.1c-3.7,0.2-7.4,0.4-11.1,0.7l-3.3,0.2l0.5,8.2c-0.9,0.1-1.7,0.1-2.6,0.2l-2.8-37.3l-3.3,0.2
		c-6.8,0.5-13.7,1.1-20.5,1.7l-3.3,0.3l2.6,28.8c-4,0.4-8,0.8-12,1.2l-3.3,0.3l2.4,22.8c-2,0.2-4,0.4-6,0.7l-3.3,0.4l2.5,22.7
		c-1,0.1-2.1,0.2-3.1,0.4l-12.9-106.9l-3.3,0.4c-7.8,0.9-15.6,2-23.4,3l-3.3,0.5l7.5,53.6c-3.6,0.5-7.3,1-10.9,1.6l-3.3,0.5
		l6.1,40.7c-2,0.3-4,0.6-6,0.9l-1.7-10.3l-3.2,0.5c-4.2,0.7-8.4,1.4-12.6,2.1l-3.2,0.6l4.5,26.1c1.8,10.5,7.5,19.9,16.1,26.6
		l1.9,1.5l2-1.3c26.7-17.7,72.9-32,123.6-38.2l9.8-0.9l-0.2-0.2c1.5-0.2,3-0.3,4.6-0.5c0.8-0.1,1.6-0.1,2.4-0.2
		c3-0.3,6.1-0.5,9.1-0.7c0.5,0,0.9-0.1,1.4-0.1c2.6-0.2,5.2-0.3,7.8-0.4c1.1-0.1,2.2-0.1,3.3-0.2c2.8-0.1,5.6-0.2,8.4-0.3
		c4.8-0.1,9.5-0.2,14.3-0.2c23.3,0,46.3,1.6,68.6,4.8l4.2,0.6c45,6.8,85,19.8,109.8,35.7l2.3,1.5l5.9-6.6
		c5.5-6.1,9.2-13.5,10.6-21.4l13.7-79.5L503.5,186.5z M385.5,211.9c3.4,3.9,5,8.8,4.5,13.8c-0.4,5.1-2.9,9.6-6.5,12.8
		c-2.3,1.3-4.5,2.7-6.8,4c-1.5,0.4-3,0.8-4.6,1.1c-1.3,0.2-2.7,0.2-4.1,0.1c-11.1-0.7-19.9-10-19.5-20.7c6.9,0.3,13.8,0.7,20.7,1.1
		c0.4-6.5,0.8-13,1.2-19.6c0,0,0,0,0,0C376.5,205,381.8,207.6,385.5,211.9z M301.3,141.4c-0.6-0.4-1.2-0.8-1.8-1.2c1.7,0,3.3,0,5,0
		c0,0,0,0,0,0c1.2,0,2.2-0.4,3.1-1.1c4.2,1.6,9.4,5.2,14,13.4c2.4,4.2,7,6.9,12,7c5,0.1,21.8,1,29.4,9.4c2.8,3.1,4.1,6.8,3.8,11.4
		l-1.1,17.9c-5.7,0.7-11.1,3.1-15.3,6.8c-1.8,1.6-3.3,3.5-4.6,5.5c0.6-13.7,1.2-27.3,1.8-41c0.2-4.3-3.5-8-8.3-8.2
		c-8.2-0.3-16.5-0.5-24.7-0.6C312.6,152.8,307.9,146,301.3,141.4z M293.9,241c-7.7,0-15.5,0.2-23.2,0.5c-0.4,0-0.8,0-1.1,0.1
		c-0.5,0-1,0-1.4,0.1c10.1-4.1,17.3-13.8,17.3-25c0-6.9-2.8-13.3-7.9-18.2c-5.4-5.2-13-8.1-20.8-7.9c-7.8,0.2-15.2,3.5-20.3,9.1
		c-4.8,5.2-7.2,11.8-6.8,18.7c0.7,11.8,9.4,21.6,20.8,24.5c-0.1,0-0.3,0-0.4,0c-0.6,0.1-1.3,0.1-1.9,0.2c-2.6,0.2-5.2,0.5-7.8,0.8
		c-0.5,0-0.9,0.1-1.4,0.1c-9-5.7-14.8-15.1-15.4-25.3c-0.5-8.1,2.3-16.1,8-22.3c6.2-6.9,15.4-11,25.1-11.3
		c12.5-0.3,24,5.5,30.1,15.1l2.1,3.8l1.9,0c12.7,0,25.6,0.2,38.4,0.5c-0.2,5.9-0.4,11.8-0.5,17.7c4.5,0.1,9,0.3,13.4,0.5
		c-0.3,8.6,3.7,16.4,10.2,21.6c-18.8-2.2-38.2-3.3-57.7-3.4C294.3,241,294.1,241,293.9,241z M258.1,237.6
		c-11.6,0.5-21.7-8.5-22.3-19.6c-0.3-5.2,1.6-10.2,5.2-14.2c4-4.3,9.8-6.9,15.9-7.1c0.2,0,0.5,0,0.7,0c5.9,0,11.6,2.2,15.6,6.2
		c3.9,3.7,6,8.7,6,13.9C279.3,227.8,269.8,237.2,258.1,237.6z"/>
</g>
</svg>
